<mxfile host="app.diagrams.net" modified="2021-03-25T18:32:16.200Z" agent="5.0 (Windows NT 10.0; Win64; x64) AppleWebKit/537.36 (KHTML, like Gecko) Chrome/89.0.4389.90 Safari/537.36" etag="fGyv_jMzZg5fxNGdsgDU" version="14.5.1" type="github">
  <diagram id="kgpKYQtTHZ0yAKxKKP6v" name="Page-1">
    <mxGraphModel dx="1038" dy="548" grid="1" gridSize="10" guides="1" tooltips="1" connect="1" arrows="1" fold="1" page="1" pageScale="1" pageWidth="850" pageHeight="1100" math="0" shadow="0">
      <root>
        <mxCell id="0" />
        <mxCell id="1" parent="0" />
        <mxCell id="7aCDFihIcUu_NE2r_-5A-21" value="UFO meghal" style="shape=umlFrame;whiteSpace=wrap;html=1;" vertex="1" parent="1">
          <mxGeometry x="60" y="40" width="580" height="440" as="geometry" />
        </mxCell>
        <mxCell id="7aCDFihIcUu_NE2r_-5A-22" value="et: UFO" style="shape=umlLifeline;perimeter=lifelinePerimeter;container=1;collapsible=0;recursiveResize=0;rounded=0;shadow=0;strokeWidth=1;" vertex="1" parent="1">
          <mxGeometry x="160" y="90" width="100" height="390" as="geometry" />
        </mxCell>
        <mxCell id="7aCDFihIcUu_NE2r_-5A-23" value="" style="points=[];perimeter=orthogonalPerimeter;rounded=0;shadow=0;strokeWidth=1;" vertex="1" parent="7aCDFihIcUu_NE2r_-5A-22">
          <mxGeometry x="45" y="70" width="10" height="260" as="geometry" />
        </mxCell>
        <mxCell id="7aCDFihIcUu_NE2r_-5A-34" value="" style="shape=umlDestroy;whiteSpace=wrap;html=1;strokeWidth=3;" vertex="1" parent="7aCDFihIcUu_NE2r_-5A-22">
          <mxGeometry x="35" y="350" width="30" height="30" as="geometry" />
        </mxCell>
        <mxCell id="7aCDFihIcUu_NE2r_-5A-24" value="a: Aszteroida" style="shape=umlLifeline;perimeter=lifelinePerimeter;container=1;collapsible=0;recursiveResize=0;rounded=0;shadow=0;strokeWidth=1;" vertex="1" parent="1">
          <mxGeometry x="310" y="90" width="100" height="380" as="geometry" />
        </mxCell>
        <mxCell id="7aCDFihIcUu_NE2r_-5A-25" value="" style="points=[];perimeter=orthogonalPerimeter;rounded=0;shadow=0;strokeWidth=1;" vertex="1" parent="7aCDFihIcUu_NE2r_-5A-24">
          <mxGeometry x="45" y="90" width="10" height="20" as="geometry" />
        </mxCell>
        <mxCell id="7aCDFihIcUu_NE2r_-5A-26" value="" style="verticalAlign=bottom;endArrow=open;dashed=1;endSize=8;exitX=0;exitY=0.95;shadow=0;strokeWidth=1;" edge="1" parent="1" source="7aCDFihIcUu_NE2r_-5A-25" target="7aCDFihIcUu_NE2r_-5A-23">
          <mxGeometry relative="1" as="geometry">
            <mxPoint x="285" y="246" as="targetPoint" />
          </mxGeometry>
        </mxCell>
        <mxCell id="7aCDFihIcUu_NE2r_-5A-27" value="2 : HajoElhagy(et)" style="verticalAlign=bottom;endArrow=block;entryX=0;entryY=0;shadow=0;strokeWidth=1;" edge="1" parent="1" source="7aCDFihIcUu_NE2r_-5A-23" target="7aCDFihIcUu_NE2r_-5A-25">
          <mxGeometry relative="1" as="geometry">
            <mxPoint x="285" y="170" as="sourcePoint" />
          </mxGeometry>
        </mxCell>
        <mxCell id="7aCDFihIcUu_NE2r_-5A-28" value="ny: Nyersanyag" style="shape=umlLifeline;perimeter=lifelinePerimeter;whiteSpace=wrap;html=1;container=1;collapsible=0;recursiveResize=0;outlineConnect=0;" vertex="1" parent="1">
          <mxGeometry x="460" y="90" width="100" height="250" as="geometry" />
        </mxCell>
        <mxCell id="7aCDFihIcUu_NE2r_-5A-29" value="" style="html=1;points=[];perimeter=orthogonalPerimeter;" vertex="1" parent="7aCDFihIcUu_NE2r_-5A-28">
          <mxGeometry x="45" y="180" width="10" height="30" as="geometry" />
        </mxCell>
        <mxCell id="7aCDFihIcUu_NE2r_-5A-30" value="" style="shape=umlDestroy;whiteSpace=wrap;html=1;strokeWidth=3;" vertex="1" parent="7aCDFihIcUu_NE2r_-5A-28">
          <mxGeometry x="35" y="230" width="30" height="30" as="geometry" />
        </mxCell>
        <mxCell id="7aCDFihIcUu_NE2r_-5A-31" value="3 : Megsemmisul()" style="html=1;verticalAlign=bottom;endArrow=block;entryX=0;entryY=0;" edge="1" parent="1" source="7aCDFihIcUu_NE2r_-5A-23" target="7aCDFihIcUu_NE2r_-5A-29">
          <mxGeometry relative="1" as="geometry">
            <mxPoint x="570" y="330" as="sourcePoint" />
          </mxGeometry>
        </mxCell>
        <mxCell id="7aCDFihIcUu_NE2r_-5A-32" value="" style="html=1;verticalAlign=bottom;endArrow=open;dashed=1;endSize=8;exitX=0;exitY=0.95;" edge="1" parent="1" source="7aCDFihIcUu_NE2r_-5A-29" target="7aCDFihIcUu_NE2r_-5A-23">
          <mxGeometry relative="1" as="geometry">
            <mxPoint x="570" y="406" as="targetPoint" />
          </mxGeometry>
        </mxCell>
        <mxCell id="7aCDFihIcUu_NE2r_-5A-33" value="" style="html=1;verticalAlign=bottom;endArrow=open;dashed=1;endSize=8;exitX=-0.1;exitY=0.984;exitDx=0;exitDy=0;exitPerimeter=0;entryX=0.003;entryY=0.861;entryDx=0;entryDy=0;entryPerimeter=0;" edge="1" parent="1" source="7aCDFihIcUu_NE2r_-5A-23" target="7aCDFihIcUu_NE2r_-5A-21">
          <mxGeometry relative="1" as="geometry">
            <mxPoint x="470" y="260" as="sourcePoint" />
            <mxPoint x="50" y="445" as="targetPoint" />
            <mxPoint as="offset" />
          </mxGeometry>
        </mxCell>
        <mxCell id="7aCDFihIcUu_NE2r_-5A-35" value="1 : Meghal()" style="verticalAlign=bottom;startArrow=none;endArrow=block;startSize=8;shadow=0;strokeWidth=1;startFill=0;exitX=-0.006;exitY=0.278;exitDx=0;exitDy=0;exitPerimeter=0;" edge="1" parent="1" source="7aCDFihIcUu_NE2r_-5A-21" target="7aCDFihIcUu_NE2r_-5A-23">
          <mxGeometry relative="1" as="geometry">
            <mxPoint x="70" y="170" as="sourcePoint" />
          </mxGeometry>
        </mxCell>
        <mxCell id="7aCDFihIcUu_NE2r_-5A-41" value="loop" style="shape=umlFrame;whiteSpace=wrap;html=1;" vertex="1" parent="1">
          <mxGeometry x="80" y="215" width="520" height="165" as="geometry" />
        </mxCell>
        <mxCell id="7aCDFihIcUu_NE2r_-5A-42" value="[all Nyersanyag in nyersanyagRakter]" style="text;html=1;strokeColor=none;fillColor=none;align=center;verticalAlign=middle;whiteSpace=wrap;rounded=0;" vertex="1" parent="1">
          <mxGeometry x="90" y="250" width="90" height="20" as="geometry" />
        </mxCell>
      </root>
    </mxGraphModel>
  </diagram>
</mxfile>
